# xmcd CD database file
#
# Track frame offsets:
#	150
#	15595
#	32124
#	49871
#	60905
#	73341
#	87589
#	101967
#	114765
#	128189
#	140247
#	152882
#	166040
#	179644
#	193088
#	209812
#	223976
#	236216
#	253232
#	269094
#
# Disc length: 3836 seconds
#
# Revision: 1
# Processed by: cddbd v1.5.2PL0 Copyright (c) Steve Scherf et al.
# Submitted via: CDex 1.51
#
DISCID=460efa14
DTITLE=Acker Bilk - Golden Hour of
DYEAR=1900
DGENRE=Jazz
TTITLE0=Marching Through Georgia
TTITLE1=Louisian-i-ay
TTITLE2=Spider And The Fly
TTITLE3=Gladiolus Rag
TTITLE4=Blaze Away
TTITLE5=Carry Me Back
TTITLE6=Willi The Weeper
TTITLE7=Burgundy Street
TTITLE8=Jump In The Line
TTITLE9=CRE March
TTITLE10=Easter Parade
TTITLE11=Higher Ground
TTITLE12=Travelling Blues
TTITLE13=Under The Double Eagle
TTITLE14=Dardanella
TTITLE15=Franklin Street Blues
TTITLE16=El Abanico
TTITLE17=Wolvering Blues
TTITLE18=Delia Gone
TTITLE19=South Rampart Street Parade
EXTD=
EXTT0=
EXTT1=
EXTT2=
EXTT3=
EXTT4=
EXTT5=
EXTT6=
EXTT7=
EXTT8=
EXTT9=
EXTT10=
EXTT11=
EXTT12=
EXTT13=
EXTT14=
EXTT15=
EXTT16=
EXTT17=
EXTT18=
EXTT19=
PLAYORDER=
